<?xml version="1.0" encoding="UTF-8" standalone="no"?>
<!DOCTYPE svg PUBLIC "-//W3C//DTD SVG 1.1//EN" "http://www.w3.org/Graphics/SVG/1.1/DTD/svg11.dtd">
<svg width="100%" height="100%" viewBox="0 0 250 250" version="1.1" xmlns="http://www.w3.org/2000/svg" xmlns:xlink="http://www.w3.org/1999/xlink" xml:space="preserve" xmlns:serif="http://www.serif.com/" style="fill-rule:evenodd;clip-rule:evenodd;stroke-linejoin:round;stroke-miterlimit:2;">
    <g transform="matrix(1,0,0,1,-810.51217,-1129.593428)">
        <g transform="matrix(0.903969,0,0,1.018122,77.833998,-20.47105)">
            <rect x="810.512" y="1129.593" width="276.558" height="245.55" style="fill:none;"/>
            <clipPath id="_clip1">
                <rect x="810.512" y="1129.593" width="276.558" height="245.55"/>
            </clipPath>
            <g clip-path="url(#_clip1)">
                <g transform="matrix(1.148364,0,0,1.019608,706.670449,1137.704957)">
                    <path d="M131.448,75.003C129.636,75.633 127.807,76.241 125.575,77.148C116.824,80.701 115.304,82.286 110.212,83.635C109.556,83.809 108.859,83.724 108.265,83.398C108.158,83.36 107.434,83.095 107.089,82.896L106.301,82.225L105.854,81.472L105.642,80.644L105.675,79.607C105.808,78.846 106.292,77.546 107.906,75.981C109.53,74.407 112.614,72.245 118.324,69.783C133.785,63.119 133.837,63.3 135.156,62.672C135.238,62.633 135.808,62.434 136.069,62.009C136.828,60.776 140.537,48.649 140.775,47.762C141.388,45.479 142.18,42.875 142.668,41.305C136,42.01 132.769,42.588 131.909,42.742C118.154,45.207 116.307,45.825 105.353,49.747L105.351,49.747C103.884,50.341 94.541,54.111 89.899,57.436C84.688,61.169 81.795,63.767 80.8,66.585C79.882,69.183 80.806,71.818 82.478,75.563C86.46,83.509 87.283,83.141 88.255,86.761C89.076,89.818 88.397,91.936 87.339,93.41C85.735,95.646 82.954,96.408 81.788,96.519C77.101,96.965 74.354,93.34 73.952,92.885C73.873,92.796 73.801,92.701 73.735,92.602C70.549,87.82 70.811,87.669 69.266,82.144C69.247,82.076 69.231,82.007 69.217,81.937C68.592,78.721 66.191,68.753 74.763,58.108C74.79,58.074 74.818,58.041 74.847,58.009C79.027,53.309 81.724,51.556 83.058,50.566C99.637,38.262 135.771,31.412 136.082,31.351C139.429,30.697 156.632,27.333 178.291,25.365C188.413,24.445 191.354,30.8 190.215,34.483C189.845,35.678 189.09,36.762 187.955,37.562C186.585,38.528 182.976,39.338 178.464,39.73C171.214,40.361 161.38,40.327 156.962,40.364C159.524,45.096 159.127,49.392 158.007,53.312C157.377,55.516 156.488,57.575 155.929,59.504C156.45,59.606 157.088,59.738 157.666,59.881L157.719,59.894L157.931,59.882C160.328,60.028 171.394,62.155 172.301,62.32L172.398,62.34C194.521,67.236 201.755,72.485 210.61,74.752C210.655,74.763 210.707,74.774 210.759,74.783C210.89,74.573 211.083,74.254 211.217,73.999C211.635,73.199 212.118,72.232 212.81,71.141C213.457,70.123 215.193,67.42 217.726,65.432C220.678,63.115 224.592,61.736 229.148,63.963C234.311,66.487 235.104,72.14 232.44,77.488C230.14,82.105 225.216,86.344 219.259,87.125C218.498,87.224 217.849,87.25 217.285,87.25C216.946,87.25 216.528,87.247 216.243,87.245C216.198,87.326 216.151,87.415 216.113,87.496C214.89,90.134 210.431,102.599 198.611,123.979L197.404,126.157C202.658,124.043 209.134,122.006 219.425,120.331L219.515,120.317C236.616,118.138 243.12,118.839 254.016,119.713C255.832,119.858 257.142,119.995 258.15,120.044C258.812,120.076 259.25,120.124 259.633,119.955C260.064,119.765 260.391,119.367 260.92,118.798C267.895,111.278 269.138,109.347 270.072,108.172C280.7,94.796 287.613,83.025 292.642,74.296C293.526,72.761 298.016,64.97 302.751,54.852C300.78,54.333 295.326,52.793 284.641,48.198C265.457,39.947 248.114,35.501 230.695,41.268C224.596,43.287 220.695,48.138 217.825,52.377C215.633,55.614 213.978,58.564 212.551,60.138C208.577,64.521 203.612,63.874 200.87,61.165C198.257,58.583 197.226,53.668 201.779,48.694C202.063,48.384 204.203,46.057 205.494,44.96C213.694,37.992 226.339,28.026 249.903,29.194C278.066,30.59 298.466,41.654 306.518,43.806C306.768,43.873 307.062,43.919 307.262,43.947C307.435,43.645 307.756,43.074 307.99,42.618C308.545,41.537 309.265,40.216 310.439,38.712C314.183,33.914 315.341,33.74 317.827,32.599C318.062,32.491 318.313,32.418 318.57,32.382C320.567,32.108 320.558,31.939 322.136,32.161C322.527,32.216 322.9,32.371 323.291,32.426C323.487,32.454 323.679,32.503 323.864,32.573C325.762,33.296 325.803,33.188 327.406,34.402C328.294,35.075 331.141,37.917 330.246,42.971C330.014,44.285 329.439,45.676 328.888,46.791C351.992,47.175 364.775,50.414 375.137,51.634C380.446,52.259 408.356,56.597 409.104,56.675C416.358,57.43 439.226,58.489 439.453,58.54C439.388,58.525 439.067,58.486 439.067,58.486C439.067,58.486 439.193,58.486 439.291,58.484C441.589,58.431 451.794,57.702 458.968,55.66C471.511,52.089 474.085,42.956 477.987,37.284C480.456,33.695 483.101,32.351 485.313,32.116C489.154,31.708 492.307,34.536 493.241,37.842C494.129,40.99 492.388,44.272 492.249,44.596C491.139,47.172 488.701,49.848 485.973,52.146C482.23,55.3 478.012,57.781 476.851,58.427C465.148,65.111 455.767,67.273 436.868,67.942C433.99,68.044 382.633,64.386 380.463,64.112C378.978,63.925 379,63.929 377.517,63.75C338.644,59.049 330.097,58.479 316.82,58.712C316.294,58.721 315.94,58.688 315.678,58.852C315.401,59.025 315.273,59.353 315.029,59.757C314.324,60.924 313.444,62.597 311.762,64.951C305.692,73.45 305.639,73.406 305.12,74.151C303.952,75.83 293.794,97.569 282.224,114.22C278.441,119.665 276.814,121.827 276.003,122.851C279.932,123.73 287.674,125.085 293.001,126.768C295.57,127.58 297.636,128.521 298.766,129.448C298.986,129.629 299.181,129.812 299.352,129.996L299.892,130.694L300.415,131.958C300.587,132.748 300.583,133.454 300.462,134.08L300.125,135.131L299.556,136.052C298.648,137.193 296.967,138.038 294.688,138.307C288.88,138.992 278.095,136.224 276.301,135.812C271.491,134.82 271.538,134.629 267.468,134.127C266.796,134.045 266.526,134.306 266.288,134.585C266.09,134.818 265.897,135.054 265.693,135.278C262.245,139.048 261.691,139.629 261.336,140.001C260.015,141.387 253.239,147.853 249.457,150.728C242.293,156.173 234.532,162.353 226.93,165.685C226.098,166.05 225.267,166.381 224.439,166.675L224.844,166.817C226.276,167.32 226.326,167.115 242.818,172.889C250.216,175.479 267.448,181.049 273.641,182.633C282.598,184.924 296.97,188.638 312.708,187.191C316.447,186.848 323.071,185.494 331.44,175.43C331.511,175.344 331.5,175.345 332.283,174.305C332.34,174.23 332.401,174.158 332.465,174.089C333.422,173.068 334.244,172.218 334.4,172.057C334.488,171.967 334.581,171.883 334.68,171.807C337.065,169.958 340.536,167.099 345.402,170.089C345.784,170.324 348.329,172.338 348.667,175.763C348.864,177.746 348.387,180.298 345.907,183.19C339.726,190.399 322.647,196.46 311.019,196.968C296.32,197.609 283.467,194.835 272.486,192.611C272.445,192.602 272.404,192.593 272.364,192.583C271.726,192.422 271.732,192.449 264.381,190.621L264.379,190.621C252.465,187.648 234.136,181.964 229.33,180.602C229.287,180.59 229.245,180.577 229.202,180.563C225.095,179.172 199.506,171.385 193.318,169.8C182.557,167.042 181.013,166.718 175.509,165.71L175.451,165.699C173.94,165.387 172.796,165.143 171.887,165.003C170.848,164.842 170.408,164.824 169.811,165.41C168.92,166.284 167.546,168.07 164.007,171.586C160.115,175.453 147.89,188.702 125.622,195.721C119.587,197.623 109.619,199.745 100.445,199.638C93.95,199.562 87.854,198.329 83.593,195.367C81.343,193.803 76.26,190.134 76.186,181.502C76.151,177.447 77.601,173.759 80.109,170.472C77.462,171.618 74.966,172.405 72.619,172.914C62.831,175.036 55.47,172.41 50.332,170.155C33.058,162.575 32.285,144.098 37.259,132.537C42.565,120.206 53.458,115.356 63.185,114.889C69.812,114.57 75.876,116.338 79.377,119.03C83.615,122.287 86.041,126.931 87.371,131.439C89.262,137.844 88.928,143.895 88.915,144.544C88.833,148.807 87.121,151.337 85.104,152.661C81.789,154.836 77.208,153.889 74.783,150.942C73.303,149.143 72.991,146.644 73.288,143.395C73.599,139.996 74.482,135.497 73.226,130.013C72.687,127.66 71.105,126.419 69.548,125.717C67.745,124.904 65.934,124.722 65.144,124.6C62.584,124.415 62.54,124.343 59.932,124.836C56.051,125.57 50.782,128.284 47.461,133.705C45.647,136.665 45.182,139.085 44.875,140.142C44.687,140.94 43.826,144.634 44.075,147.254C45.07,157.689 54.353,161.493 54.556,161.6C63.93,166.623 72.589,162.79 73.678,162.374C75.496,161.65 88.46,157.28 104.637,131.351L104.683,131.279C108.054,126.249 109.446,123.422 110.551,121.435C112.958,116.934 112.964,116.956 115.278,112.375C116.382,110.187 121.28,100.485 127.725,84.387C127.992,83.721 130.059,78.559 131.448,75.003ZM328.17,48.136L328.167,48.143L328.247,48.374C328.226,48.292 328.2,48.212 328.17,48.136ZM154.057,40.636C154.145,40.631 154.233,40.62 154.321,40.603L154.039,40.609C154.045,40.618 154.051,40.627 154.057,40.636ZM317.689,45.159C317.884,45.096 318.047,45.029 318.151,44.962C319.619,44.019 320.215,42.831 320.455,42.158L320.476,41.956C320.418,41.985 320.362,42.015 320.313,42.046C319.542,42.541 318.737,43.45 317.896,44.82L317.689,45.159ZM194.889,156.752C196.603,156.788 210.654,157.032 234.432,141.459C238.552,138.761 238.563,138.801 242.478,135.819C243.32,135.178 243.348,135.251 244.151,134.579C245.767,133.227 246.534,132.627 247.355,131.974C239.651,131.654 219.358,131.128 200.769,137.437C184.723,142.884 182.716,149.505 182.423,150.395C182.159,151.198 182.652,151.792 183.101,152.238C183.941,153.073 184.953,153.53 185.083,153.605C189.6,156.193 194.402,156.734 194.889,156.752ZM221.17,75.937C221.679,75.723 222.099,75.467 222.442,75.181C223.391,74.391 223.759,73.429 223.991,72.783C223.904,72.826 223.816,72.874 223.738,72.926C223.26,73.246 222.762,73.724 222.237,74.369C221.916,74.763 221.536,75.34 221.17,75.937ZM85.929,182.114L85.935,182.155C86.117,183.223 87.137,184.193 89.188,185.503C90.173,186.132 95.224,188.285 102.593,187.236C103.213,187.148 110.272,186.868 125.516,179.595C125.924,179.4 125.902,179.366 130.456,176.848C140.362,171.372 148.608,164.57 150.826,162.705C142.707,162.325 120.212,161.947 101.016,169.337C98.72,170.221 96.77,171.216 95.372,172.002C95.469,172.53 95.404,173.082 95.175,173.581L95.03,174.203L94.594,175.033L94.029,175.618L93.83,176.337L93.406,176.967L92.93,177.395L92.762,177.697C92.244,178.409 91.43,179.062 91.299,179.163C91.084,179.33 91.081,179.379 88.624,180.617L88.229,181.117C87.659,181.84 86.785,182.186 85.929,182.114ZM92.378,177.649L91.84,177.892C92.036,177.837 92.215,177.753 92.378,177.649ZM98.814,157.727C107.94,153.981 117.957,151.763 124.615,150.974C142.499,148.854 145.42,149.525 161.134,150.844C161.981,150.915 162.555,151.012 163.087,150.822C163.617,150.633 164.049,150.167 164.736,149.429C165.641,148.456 166.766,147.09 168.343,145.195C170.815,142.223 170.932,142.334 173.276,139.258C173.685,138.722 173.767,138.791 178.481,132.632C179.951,130.712 186.892,120.624 187.71,119.209C188.747,117.415 190.444,115.02 192.218,111.927C193.381,109.899 202.325,94.315 206.022,86.171C206.043,86.125 206.13,85.875 206.227,85.591C203.999,84.935 199.229,83.615 188.764,79.21C181.318,76.076 174.631,74.674 168.573,72.269C168.668,74.046 168.363,75.647 167.786,76.786C167.508,77.335 167.167,77.801 166.782,78.181L166.051,78.77L165.172,79.211L164.197,79.447L163.205,79.463C162.639,79.413 162.022,79.259 161.362,78.955L160.117,78.168L159.549,77.53L159.184,76.872C159.077,76.625 159.042,76.31 158.802,75.824C157.568,73.325 155.452,72.051 153.616,71.525C152.955,71.336 152.118,71.29 151.614,71.281C151.444,71.636 151.222,72.114 151.022,72.588C148.514,78.508 142.806,93.942 131.267,114.068C129.907,116.485 129.869,116.454 129.758,116.668C128.858,118.4 128.739,118.307 128.26,119.118C127.653,120.144 122.983,128.041 120.466,131.815C119.691,132.978 114.551,140.678 110.115,145.885L110.102,145.899C109.954,146.07 109.116,147.04 108.245,148.03C104.972,151.749 101.829,154.961 98.814,157.727Z" style="fill:rgb(240,207,42);"/>
                </g>
            </g>
        </g>
    </g>
</svg>
