<?xml version="1.0" encoding="UTF-8" standalone="no"?>
<!DOCTYPE svg PUBLIC "-//W3C//DTD SVG 1.1//EN" "http://www.w3.org/Graphics/SVG/1.1/DTD/svg11.dtd">
<svg width="100%" height="100%" viewBox="0 0 991 176" version="1.1" xmlns="http://www.w3.org/2000/svg" xmlns:xlink="http://www.w3.org/1999/xlink" xml:space="preserve" xmlns:serif="http://www.serif.com/" style="fill-rule:evenodd;clip-rule:evenodd;stroke-linejoin:round;stroke-miterlimit:2;">
    <g transform="matrix(1,0,0,1,-1003.656713,-875.953887)">
        <g transform="matrix(1.038086,0,0,1.038086,965,854)">
            <path d="M468.904,97.744C468.627,98.205 459.224,112.903 457.713,126.523C457.158,131.528 457.949,131.692 458.364,131.777C459.812,132.076 461.378,130.481 463.858,127.855C470.049,121.298 472.044,118.357 475.778,109.61C479.375,100.477 477.275,99.212 476.413,92.512C475.454,85.059 483.056,83.816 483.576,90.492C483.759,92.837 482.932,99.363 490.534,100.075C493.384,100.343 492.894,99.044 497.153,95.077C497.332,94.941 498.888,93.76 499.528,93.594C501.163,93.171 501.196,93.449 502.588,94.397C503.862,95.264 504.021,96.905 504.225,97.546C504.337,101.268 504.359,101.438 498.645,111.582C498.416,111.987 496.607,115.2 495.851,116.686C494.547,119.475 484.131,138.925 490.493,138.863C494.869,138.82 510.972,113.274 514.586,104.537C515.618,102.041 519.637,93.002 522.581,89.565C528.59,82.549 535.046,86.227 532.123,93.352C530.61,97.04 525.005,104.878 522.746,109.517C522.759,109.848 522.533,110.159 522.545,110.49C522.555,110.757 522.627,111.053 522.811,111.246C523.303,111.764 523.536,111.63 523.596,111.596C524.257,111.215 523.67,110.751 524.324,110.374C524.555,109.994 528.944,101.724 539.29,95.159C551.482,87.422 557.433,94.311 553.36,102.432C551.526,106.088 544.318,116.558 542.534,126.506C541.638,131.505 543.426,132.423 544.443,132.185C547.383,131.496 553.635,123.401 555.087,121.209C560.101,113.641 565.203,103.972 566.525,103.568C569.384,102.695 567.785,106.333 567.682,106.568C566.948,108.237 562.341,118.72 556.213,126.266C552.867,130.437 552.964,130.551 548.735,133.832C544.3,137.273 534.247,138.856 533.468,128.503C532.575,116.635 540.818,103.127 540.543,102.493C539.976,101.183 539.512,101.35 538.399,102.241C535.44,104.606 525.374,111.86 519.719,124.599C516.77,131.241 520.149,133.068 518.175,135.19C517.128,136.316 513.321,136.744 511.524,133.485C508.974,128.863 509.991,125.009 510.277,123.537L509.364,122.993C509.09,123.065 508.874,122.55 508.6,122.622C508.55,122.635 506.736,126.817 504.232,130.307C502.664,132.493 492.667,147.467 484.493,143.514C482.707,142.65 481.709,140.772 481.55,140.473C480.244,138.016 480.28,136.501 479.945,134.476C480.153,129.585 480.204,124.439 487.915,108.716C488.447,107.631 490.734,104.622 489.506,103.492C489.347,103.345 486.204,102.713 485.521,102.438C484.401,101.988 484.41,101.646 483.294,102.047C481.632,102.644 482.499,106.554 476.959,116.75C474.581,121.126 473.273,123.159 467.696,129.67C466.932,130.563 460.14,138.492 454.575,136.283C452.075,135.291 451.264,133.878 451.149,133.762C445.773,125.211 452.053,110.55 451.999,109.482C451.987,109.235 451.438,107.993 451.363,107.965C451.083,107.86 450.747,108.043 450.467,107.939C448.437,107.914 448.422,108.104 446.492,107.533C445.43,107.219 445.442,107.002 444.375,107.24C442.808,107.59 444.555,109.882 441.52,120.506C437.958,132.975 427.354,140.252 416.549,135.402C412.576,133.619 407.748,127.124 408.886,117.533C409.711,110.574 410.729,103.377 417.427,94.442C423.052,86.939 432.981,83.541 435.057,89.643C435.545,91.079 433.709,94.437 432.449,95.423C431.236,96.373 428.75,97.449 423.949,102.854C421.743,105.828 414.623,114.545 416.222,126.537C417,132.367 420.527,132.699 421.442,132.858C425.435,133.556 432.182,131.655 435.535,124.518C440.981,112.926 438.611,106.156 438.081,104.644C437.724,103.625 434.959,97.899 435.786,95.493C435.879,95.224 437.33,92.534 437.464,92.426C438.681,91.445 440.798,91.832 441.649,93.407C443.679,97.164 442.242,103.585 450.518,104.18C454.821,104.49 454.474,102.522 457.924,95.722C462.322,87.053 465.377,86.593 466.376,86.146C466.829,86.078 468.337,85.289 470.531,86.452C474.095,88.342 470.351,95.123 469.99,95.777C469.436,96.782 469.482,96.78 468.904,97.744ZM756.642,58.968C758.234,58.749 758.223,58.569 759.481,58.746C759.872,58.801 760.244,58.956 760.636,59.011C762.177,59.598 762.221,59.49 763.522,60.476C764.14,60.944 765.977,62.965 765.356,66.477C764.79,69.675 762.588,71.75 762.831,72.487C762.877,72.627 763.152,72.517 763.251,72.626C763.42,72.814 763.361,73.18 763.577,73.312C763.705,73.39 763.716,73.354 766.502,73.4C789.508,73.778 802.229,77.012 812.541,78.227C817.855,78.852 823.763,80.644 825.379,79.359C825.865,78.973 829.03,73.592 829.988,71.788C831.54,69.354 832.58,67.545 834.961,63.803C835.681,62.741 835.675,62.747 835.738,62.656C841.975,53.712 847.735,49.887 850.507,49.55C857.179,48.738 858.247,57.123 848.336,75.413C845.128,81.332 844.063,81.492 845.2,82.77C845.706,83.339 845.794,83.194 846.542,83.272C853.724,84.019 854.689,85.043 856.621,81.571C862.224,71.499 862.36,71.583 862.841,70.704C866.018,65.766 867.15,63.79 869.582,60.562C880.952,45.471 886.87,49.067 887.596,52.478C889.116,59.62 881.965,72.66 880.051,76.26C876.393,83.186 875.91,82.908 875.728,83.561C875.628,83.918 876.367,85.037 876.592,85.087C877.058,85.191 889.164,84.515 897.404,82.169C910.788,78.359 913.714,68.801 917.877,62.749C922.535,55.979 927.395,58.937 928.409,62.527C929.069,64.863 927.637,67.276 927.534,67.516C925.101,73.163 915.079,79.083 913.265,80.092C901.916,86.575 892.811,88.618 874.487,89.267C871.63,89.368 871.671,89.832 870.044,92.169C868.077,94.994 860.695,104.337 860.076,105.152C857.516,108.514 857.267,108.281 854.65,111.617C852.357,114.541 847.276,128.961 846.803,134.529C846.098,142.822 851.528,138.514 853.736,136.798C861.358,130.076 865.178,124.435 872.222,114.313C876.857,107.654 875.356,106.778 880.096,100.208C886.909,90.764 895.4,89.181 898.159,93.694C898.466,94.196 899.163,95.127 897.379,98.395C896.294,100.381 893.3,101.671 890.864,103.906L889.5,102.753C889.263,102.532 888.798,102.721 888.561,102.5C888.355,102.308 888.488,101.927 888.352,101.68C888.223,101.448 887.944,101.331 887.794,101.113C887.516,100.709 887.366,100.225 887.078,99.828C886.454,98.965 886.299,99.696 885.7,100.574C884.589,102.201 885.47,102.311 886.262,104.5L885.653,105.5L884.915,106.5L884.618,107.5L884.019,108.5L885.755,109.681C876.464,122.568 879.139,133.964 881.68,136.298C884.517,138.906 895.904,139.614 900.511,125.504C905.005,111.739 900.492,108.672 899.303,103.545C898.478,99.983 900.592,96.434 902.49,96.683C906.398,97.196 905.576,101.939 907.432,105.539C910.046,110.612 917.546,108.788 918.443,108.391C919.587,107.886 920.537,105.473 920.934,104.731C921.438,103.787 924.769,97.556 929.404,94.37C939.638,87.337 942.338,93.908 942.147,95.538C942.056,96.311 940.825,98.886 940.409,99.391C939.512,100.482 934.052,103.172 930.009,109.126C928.489,111.084 927.029,112.804 925.22,117.388C924.887,118.231 922.813,123.489 923.061,128.512C923.324,133.826 923.897,138.192 931.514,137.687C937.142,137.314 940.478,132.585 940.991,131.857C941.221,131.528 942.64,129.486 943.432,127.474C949.16,112.926 943.917,107.792 942.858,103.422C942.238,100.866 943.511,97.068 945.538,96.719C949.447,96.047 949.828,101.949 950.288,103.564C952.836,112.506 964.226,107.921 964.573,107.577C965.649,106.513 965.079,106.265 965.148,101.489C965.256,93.986 969.53,88.884 971.515,87.52C976.303,84.229 978.162,85.25 980.283,85.931C980.856,86.37 982.817,87.027 983.903,90.354C984.032,90.747 984.755,92.964 984.459,95.495C983.604,102.816 979.071,104.932 977.183,101.759C975.769,99.381 978.003,96.634 978.71,95.637C981.977,91.034 978.96,88.44 976.541,90.549C974.11,92.67 974.289,97.961 974.27,98.529C974.15,102.188 974.935,102.079 976.179,109.559C977.844,119.625 976.941,120.446 978.455,120.677C980.51,120.989 988.484,114.734 989.281,114.108C991.355,112.481 992.334,114.62 991.121,116.254C990.858,116.608 990.513,116.896 990.25,117.25C989.303,118.128 989.311,118.124 989.227,118.198C985.318,121.648 980.424,124.286 979.606,124.727C977.087,126.085 977.587,126.621 977.312,129.482C977.223,130.416 976.659,136.296 973.771,140.666C971.601,143.949 971.025,144.483 968.311,146.139C967.266,146.576 965.841,147.388 963.499,147.484C957.782,147.718 955.921,144.612 955.665,144.375C951.799,138.717 954.351,134.206 955.729,131.655C956.382,130.955 956.303,130.894 957.154,130.128C960.742,126.896 963.62,126.683 965.355,126.115C965.497,126.068 965.593,125.923 965.735,125.877C965.897,125.669 966.202,125.607 966.364,125.399C967.426,124.036 966.512,114.555 966.379,113.523C966.357,113.352 966.172,111.9 965.46,111.576C964.678,111.22 962.279,112.148 960.491,112.443C952.949,113.688 952.506,111.09 951.252,112.138C951.071,112.289 950.802,112.368 950.698,112.58C950.632,112.714 950.439,117.223 950.023,119.42C944.924,146.324 927.188,141.418 925.628,141.084C925.309,140.952 922.869,139.948 921.777,139.123C911.912,131.676 917.135,114.605 917.161,114.459C917.537,112.4 916.588,112.544 914.517,112.749C910.743,113.124 908.477,111.834 908.451,111.835C908.359,111.839 906.95,112.586 906.926,112.64C906.717,113.127 907.346,126.467 899.088,136.122C893.115,143.107 879.064,144.403 874.359,134.576C870.284,126.066 873.307,123.944 872.465,122.519C871.464,120.825 870.465,123.234 870.396,123.401C869.636,125.234 863.764,134.415 854.207,141.042C853.838,141.247 849.43,144.125 844.493,143.558C839.016,142.928 838.36,138.22 838.265,137.533C837.222,130.048 840.19,123.355 840.227,122.532C840.284,121.277 839.653,121.625 839.5,121.384L838.753,121.798C838.215,123.105 837.737,123.647 837.411,124.426C836.179,127.37 830.291,133.952 829.138,135.132C818.663,145.86 809.89,145.053 806.918,140.269C805.703,138.314 805.748,132.841 805.948,131.514C806.658,126.793 807.18,126.927 807.21,126.515C807.229,126.254 805.643,125.606 805.585,125.62C805.21,125.715 803.086,131.743 796.256,139.271C795.948,139.594 794.505,141.103 792.18,143.07C790.734,143.964 785.072,148.344 780.44,143.556C778.03,141.066 777.552,136.278 777.859,134.484C778.345,131.638 778.366,131.645 778.325,131.565C778.165,131.244 777.052,130.833 776.862,130.941C776.826,130.961 776.164,132.841 773.301,135.256C764.436,142.732 752.835,142.263 752.753,128.498C752.706,120.809 757.606,104.298 769.257,94.225C776.663,87.821 786.968,86.826 790.522,92.484C792.204,95.161 792.366,96.317 791.88,99.415C791.922,100.707 791.186,101.165 791.937,101.148C792.485,101.136 792.798,100.311 793.346,100.299C794.485,98.407 794.133,98.25 795.273,96.362C795.603,95.813 798.3,91.347 799.779,89.746C800.064,89.438 802.731,86.552 804.762,88.098C806.873,89.705 806.791,91.929 804.067,98.3C801.558,104.169 799.741,105.469 793.023,120.285C789.124,128.885 786.605,133.713 786.956,139.322C787.529,139.95 788.001,140.955 789.624,139.707C796.692,134.27 803.583,122.196 807.875,114.718C811.976,107.883 813.057,105.324 813.42,104.465C814.928,100.899 818.286,93.794 818.782,92.633C821.132,87.863 821.281,87.924 821.357,87.469C821.716,85.325 820.66,85.728 818.507,85.456C817.015,85.268 817.036,85.273 815.547,85.093C776.442,80.364 767.843,79.801 754.487,80.035C750.592,80.104 751.388,81.69 747.323,87.382C741.236,95.905 741.183,95.861 740.663,96.608C739.494,98.288 729.335,120.027 717.766,136.679C711.353,145.908 711.116,145.734 710.57,146.544C710.479,146.679 709.718,147.809 710.414,148.58C711.331,149.595 734.699,152.598 735.544,156.486C736.978,163.08 716.923,157.731 714.567,157.193C709.623,156.174 709.675,155.985 705.503,155.471C702.998,155.162 702.368,156.461 701.455,157.461C698.036,161.199 697.487,161.775 697.135,162.144C695.849,163.493 689.253,169.791 685.57,172.59C664.783,188.389 639.969,192.761 624.401,188.827C621.494,187.665 621.498,187.685 618.792,186.083C616.527,184.374 614.421,182.459 613.495,178.501C612.588,174.629 611.876,167.44 621.832,159.955L623.668,158.752C624.05,158.488 625.674,157.368 628.648,155.781C635.544,152.657 642.406,149.374 657.562,146.907C674.392,144.762 680.794,145.455 691.518,146.315C697.691,146.81 698.132,147.192 700.57,144.563C707.646,136.934 708.907,134.976 709.854,133.783C720.584,120.278 727.567,108.396 732.645,99.582C733.556,98.003 738.249,89.858 743.132,79.351C743.908,77.682 743.304,77.579 743.169,76.926C742.64,76.744 742.678,76.661 741.541,76.367C740.045,75.981 734.722,74.607 723.398,69.736C703.554,61.202 685.595,56.76 667.577,62.725C656.395,66.426 651.73,78.55 648.305,82.329C642.938,88.249 634.987,81.496 641.441,74.446C641.708,74.155 643.709,71.97 644.918,70.942C652.78,64.261 664.894,54.681 687.485,55.801C715.38,57.184 735.572,68.195 743.548,70.327C747.794,71.461 746.745,68.778 750.235,64.306C753.491,60.133 754.481,59.96 756.642,58.968ZM827.727,97.52C827.812,97.611 827.979,97.59 828.064,97.681C828.605,98.255 828.474,98.344 828.533,98.376C828.792,98.516 829.158,98.271 829.417,98.411C834.167,91.174 834.169,91.18 834.538,90.524C834.881,89.914 834.939,89.965 835.29,89.371C836.74,86.911 834.655,87.115 834.465,87.134C833.489,87.23 832.392,89.633 831.261,91.378C830.952,91.853 829.199,94.558 827.727,97.52ZM882.03,61.868C881.721,61.852 881.794,61.66 881.495,61.644C881.431,61.641 881.012,61.618 880.704,61.797L879.871,62.825C879.712,63.132 869.619,80.822 868.706,82.593C867.647,84.649 868.762,86.011 870.478,84.474C871.186,83.839 882.202,64.77 882.307,62.53C882.319,62.291 882.019,62.107 882.03,61.868ZM761.086,132.476C761.112,132.807 760.968,133.136 760.994,133.466C761.563,140.711 774.653,132.515 787.281,108.39C790.493,102.254 788.547,91.296 778.809,99.851C776.535,101.848 771.26,108.447 770.981,108.86C768.334,112.77 765.614,118.497 765.202,119.363C761.864,126.39 761.225,131.386 761.086,132.476ZM841.603,73.563C841.524,73.693 839.675,76.836 839.381,77.435C838.64,78.943 837.288,80.757 837.662,81.438C837.78,81.654 838.869,83.641 840.611,80.581C842.746,76.833 842.878,76.924 846.411,70.453C847.578,68.316 850.281,62.969 850.149,62.533C850.101,62.374 848.838,61.711 848.654,61.757C848.252,61.857 843.463,70.243 843.373,70.425C842.566,72.059 842.488,71.992 841.603,73.563ZM760.785,66.557C760.775,66.196 760.9,65.84 760.89,65.48C760.808,62.61 757.056,61.375 753.355,67.405C751.767,69.993 750.851,70.948 752.134,71.979C753.038,72.705 756.188,71.864 757.294,71.153C760.253,69.249 760.736,66.683 760.785,66.557ZM964.438,137.48C965.583,132.907 965.648,132.926 965.712,132.521C966.033,130.506 965.181,130.157 963.335,131.044C957.964,133.628 957.105,140.043 960.564,141.247C961.27,141.492 962.443,140.698 962.584,140.603C963.423,140.034 964.33,137.75 964.438,137.48ZM859.763,97.565C859.871,97.848 859.556,98.184 859.663,98.467C859.711,98.593 860.301,100.144 861.128,99.294C861.256,99.162 860.98,98.995 862.292,97.32C862.844,96.616 865.241,92.884 865.491,92.494C866.639,90.707 866.649,90.706 866.676,90.524C866.93,88.781 865.924,88.454 864.677,89.692C864.004,90.36 860.793,95.895 859.763,97.565ZM820.557,137.581C822.25,136.258 828.102,131.685 838.008,117.163C838.208,116.87 840.199,113.951 840.488,113.491C841.622,111.682 843.219,110.437 843.627,109.573C844.117,108.537 843.9,108.457 849.251,96.394C850.349,93.92 850.42,93.976 851.507,91.503C852.826,88.501 850.59,88.706 849.486,88.644C843.336,88.301 841.648,86.985 839.558,89.545C838.627,90.686 835.095,96.489 824.833,108.775C821.959,112.215 821.587,112.05 818.778,119.602C817.545,122.917 811.318,139.408 816.5,139.494C817.347,139.508 820.249,137.766 820.557,137.581ZM632.502,183.36C633.18,183.347 647.924,184.449 673.593,167.637C677.791,164.888 677.803,164.928 681.792,161.889C682.683,161.211 682.71,161.284 683.56,160.573C686.588,158.041 686.641,158.142 689.636,155.6C690.15,155.164 690.241,155.181 690.26,154.492C690.295,153.174 688.144,153.42 687.511,153.398C682.721,153.231 659.067,151.625 637.632,158.901C619.923,164.912 617.947,172.554 617.624,173.536C616.351,177.406 621.078,180.446 621.413,180.638C626.484,183.544 631.955,183.34 632.502,183.36ZM360.414,53.941C382.49,58.827 389.706,64.072 398.542,66.333C401.527,67.097 401.477,64.971 403.63,61.578C404.769,59.784 409.684,51.99 416.574,55.358C424.132,59.053 417.604,72.201 407.503,73.524C404.357,73.936 403.515,72.789 402.302,75.404C401.085,78.03 396.65,90.439 384.885,111.721C380.239,120.124 380.181,120.076 375.085,128.221C370.979,134.006 371.161,134.112 366.891,139.78C364.421,143.06 364.419,143.133 364.41,143.49C364.366,145.142 366.322,144.829 372.545,146.303C377.982,147.59 377.961,147.598 383.381,148.922C398.08,153.304 398.078,153.255 412.556,158.333C413.988,158.835 414.038,158.63 430.532,164.405C437.982,167.013 455.336,172.62 461.574,174.215C470.735,176.558 485.439,180.324 501.537,178.844C505.617,178.469 512.927,177.123 522.059,166.141C522.138,166.047 522.128,166.051 522.982,164.917C523.923,163.911 524.733,163.075 524.887,162.917C526.616,161.576 529.077,159.194 532.605,161.362C533.014,161.613 537.064,165.152 532.488,170.49C526.652,177.296 510.469,182.868 499.491,183.347C485.035,183.978 472.397,181.227 461.598,179.04C460.96,178.879 460.965,178.906 453.606,177.077C441.719,174.11 423.433,168.438 418.638,167.08C414.509,165.681 388.782,157.853 382.562,156.26C371.691,153.474 370.132,153.148 364.572,152.13C359.353,151.055 358.35,150.774 356.547,152.544C355.654,153.42 354.277,155.209 350.731,158.732C346.947,162.492 335.069,175.394 313.414,182.22C303.686,185.286 283.393,188.962 273.69,182.217C271.787,180.895 267.479,177.798 267.417,170.5C267.268,153.212 298.828,144.36 313.513,142.619C331.137,140.53 334.015,141.199 349.5,142.499C353.303,142.818 353.568,142.391 358.962,135.906C361.471,132.891 361.587,133.002 363.966,129.881C364.375,129.345 364.457,129.414 369.168,123.26C370.668,121.299 377.751,110.997 378.586,109.553C379.624,107.757 381.323,105.359 383.099,102.263C384.272,100.218 393.288,84.498 397.016,76.284C397.114,76.068 397.937,74.255 397.755,73.408C397.404,71.78 396.233,73.311 378.377,65.794C352.718,54.994 338.927,54.009 324.565,57.754C321.114,58.654 314.224,59.893 304.993,74.821C304.942,74.903 301.629,81.929 296.627,80.171C295.078,79.627 290.957,75.999 295.569,70.559C299.441,65.991 307.988,59.902 311.73,57.928C311.886,57.845 311.875,57.853 313.697,56.922C317.173,55.254 319.833,54.319 320.38,54.126C325.687,52.728 331.465,50.845 346.476,51.862C350.503,52.135 359.305,53.739 360.414,53.941ZM280.282,160.164L281.359,161.5C281.154,161.783 281.248,162.217 281.042,162.5C280.809,162.82 280.305,162.887 280.104,163.228C279.941,163.505 280.188,163.901 280.046,164.189C279.952,164.379 279.622,164.325 279.483,164.486C279.325,164.671 279.354,164.967 279.21,165.164C278.879,165.62 278.35,166.03 278.266,166.095C278.069,166.248 278.062,166.254 275.5,167.539L274.741,168.5L273.051,167.237C271.586,170.04 270.39,172.943 276.352,176.751C277.471,177.466 283.185,180.065 291.553,178.874C292.193,178.783 299.493,178.515 315.242,171.002C315.661,170.802 315.641,170.77 320.322,168.182C331.06,162.247 339.888,154.786 341.462,153.456C342.569,152.521 342.572,152.551 343.688,151.651C344.293,151.164 344.511,151.292 344.622,150.517C344.839,148.984 344.078,149.298 342.542,149.252C340.952,149.205 312.342,146.771 288.653,155.891C284.161,157.62 280.911,159.751 280.282,160.164ZM415.165,62.424C415.181,62.109 415.302,61.806 415.318,61.491C415.448,58.963 412.385,57.284 408.774,61.721C407.531,63.249 405.898,66.313 405.839,66.558C405.77,66.848 406.043,68.334 407.517,68.181C413.702,67.538 414.609,63.664 415.165,62.424ZM104.412,47.276C103.081,47.814 93.23,51.798 88.36,55.287C76.666,63.663 76.004,67.558 80.086,76.69C83.925,84.36 84.768,83.97 85.702,87.446C87.064,92.516 82.813,93.766 81.538,93.887C78.151,94.209 76.225,91.466 75.935,91.137C72.982,86.703 73.244,86.554 71.812,81.432C71.244,78.51 69.031,69.442 76.822,59.766C80.798,55.296 83.364,53.631 84.633,52.689C100.87,40.639 136.284,34.005 136.589,33.946C139.915,33.295 157.009,29.953 178.53,27.998C187.626,27.171 189.573,33.187 186.432,35.401C182.506,38.169 156.777,37.574 154.549,37.784C154.412,37.797 154.341,37.987 154.207,38.018C154.015,38.061 153.68,37.763 153.512,38.506C153.299,39.452 153.303,39.497 153.844,40.31C158.87,47.854 154.563,54.137 153.209,59.428C152.198,63.383 155.815,60.7 161.558,64.416C167.405,68.201 167.119,78.695 162.467,76.553C161.37,76.048 161.708,75.739 161.172,74.654C158.162,68.556 151.177,67.972 149.901,68.994C148.567,70.062 143.297,87.773 128.968,112.762C127.564,115.259 127.526,115.229 127.412,115.449C126.557,117.094 126.44,117.003 125.984,117.773C125.384,118.789 120.759,126.611 118.267,130.349C117.505,131.491 112.46,139.056 108.103,144.17C107.956,144.34 107.124,145.301 106.26,146.283C78.683,177.625 60.924,171.916 51.394,167.734C35.734,160.863 35.178,144.063 39.688,133.582C47.741,114.865 69.965,115.129 77.766,121.126C87.187,128.368 86.292,143.478 86.272,144.493C86.123,152.229 79.502,152.516 76.825,149.262C74.083,145.931 78.026,139.13 75.803,129.423C74.277,122.761 66.997,122.26 65.451,121.972C62.431,121.756 62.426,121.674 59.441,122.238C55.017,123.075 48.992,126.145 45.207,132.324C43.163,135.661 42.658,138.359 42.321,139.453C42.174,140.084 41.152,144.45 41.444,147.505C42.578,159.406 53.081,163.805 53.282,163.917C63.74,169.536 73.405,165.308 74.633,164.839C75.914,164.267 89.68,160.319 106.88,132.751C110.326,127.607 111.745,124.726 112.872,122.7C115.304,118.154 115.307,118.182 117.638,113.566C118.75,111.363 123.686,101.588 130.179,85.37C130.59,84.343 135.24,72.73 135.205,72.494C134.971,70.899 132.784,71.714 132.58,71.79C130.007,72.749 127.68,73.44 124.58,74.698C116.005,78.18 114.525,79.757 109.535,81.08C109.183,80.877 108.763,80.809 108.411,80.606C107.842,80.278 107.636,78.995 107.792,78.579C108.164,77.589 108.409,76.936 119.371,72.211C134.915,65.51 134.966,65.69 136.293,65.059C136.482,64.968 137.713,64.382 138.321,63.394C139.118,62.098 143.078,49.38 143.329,48.447C144.375,44.548 145.669,40.614 145.683,40.521C146.062,37.864 143.05,38.607 142.51,38.664C135.644,39.387 132.322,39.982 131.443,40.14C117.446,42.648 115.586,43.275 104.412,47.276ZM211.375,85.925C212.749,86.707 215.905,87.563 212.688,94.59C211.041,98.187 203.398,108.913 203.606,110.472C203.622,110.595 203.781,111.789 205,111.165C205.261,111.032 205.271,110.646 205.391,110.379C205.556,110.014 205.823,109.422 208.272,106.286C210.45,103.497 212.975,100.083 220.359,95.268C231.941,87.716 239.522,93.349 233.857,103.694C232.5,106.173 223.216,120.61 223.538,129.499C223.644,132.411 225.133,132.944 227.372,131.321C233.214,127.087 241.356,113.134 242.361,111.412C242.978,110.355 245.521,106.281 245.839,105.739C246.195,105.195 247.269,103.33 248.504,103.481C249.79,103.637 249.404,105.301 249.364,105.47C249.295,105.768 249.1,106.027 249.031,106.324C247.991,108.537 242.433,121.46 233.635,130.63C224.415,140.242 216.774,136.17 215.217,131.595C212.973,125.002 217.044,113.971 217.576,112.53C220.717,104.015 221.232,104.24 221.504,103.501C221.548,103.38 221.936,102.323 221.292,101.905C220.393,101.321 220.359,101.785 219.451,102.38C218.846,102.776 213.709,106.95 211.887,108.874C207.909,113.074 204.81,117.542 204.255,118.342C203.414,119.554 199.587,126.156 199.664,129.496C199.712,131.553 201.136,135.373 197.573,135.966C193.095,136.711 190.247,130.47 191.245,124.503C191.281,124.289 191.638,122.157 191.172,121.79C191.128,121.756 189.905,121.82 189.851,121.861C189.212,122.34 190.245,123.113 183.994,129.957C173.696,141.233 165.195,135.926 164.503,129.5C164.111,125.859 165.676,122.426 165.114,121.757C165.014,121.638 164.55,121.647 164.5,121.648C164.122,121.656 164.151,121.777 163.761,121.785L163.278,123.06C163.11,123.334 162.928,123.21 162.377,124.389C162.131,124.917 155.824,135.298 150.485,136.428C143.671,137.87 141.929,131.269 141.713,130.447C140.18,124.637 141.68,118.429 141.847,117.568C144.738,102.685 149.816,95.55 150.993,93.896C152.962,91.584 155.672,88.617 159.443,89.678C165.612,91.413 158.528,101.428 155.999,106.733C155.389,108.013 152.137,115.959 151.421,118.476C151.155,119.409 149.16,126.418 149.609,130.473C149.705,131.333 149.564,131.595 150.417,131.708C151.69,131.876 152.288,130.945 155.676,126.638C158.342,123.248 158.21,123.171 160.852,119.758C163.598,116.052 163.499,115.985 163.738,115.664C164.147,115.028 167.575,109.701 168.882,107.74C170.374,105.501 177.369,93.511 183.155,88.105C183.193,88.074 185.826,85.472 188.461,85.776C191.661,86.145 192.208,90.432 189.173,96.351C185.387,103.734 184.89,103.439 180.857,110.7C171.194,128.099 172.166,133.892 176.59,131.662C177.391,131.258 180.599,128.416 184.394,123.426C184.917,122.737 184.896,122.739 186.936,119.795C189.81,115.638 191.211,112.896 193.815,108.685C194.749,107.175 194.956,106.445 195.415,105.463C197.033,101.522 197.008,101.524 198.896,97.697C199.771,95.974 204.532,85.321 210.477,85.77C210.78,85.793 211.072,85.902 211.375,85.925ZM574.274,27.469C574.301,27.333 574.445,25.964 575.056,24.318C576.757,19.733 583.174,20.4 584.384,24.538C587.137,33.948 576.32,44.463 570.549,45.719C567.801,46.318 565.578,45.42 566.346,43.403C566.586,42.772 569.731,42.143 571.527,38.514C573.503,34.522 574.187,28.042 574.274,27.469ZM514.187,84.202C511.974,86.586 512.12,86.683 510.259,89.332C509.778,89.957 506.89,94.398 503.642,91.372C500.991,88.902 503.36,80.383 508.354,76.307C513.108,72.426 516.356,77.728 516.563,78.481C517.288,81.112 515.31,83.005 514.187,84.202Z" style="fill:rgb(240,207,42);"/>
        </g>
    </g>
</svg>
